<?xml version="1.0" encoding="utf-8"?>
<!-- Generator: Adobe Illustrator 21.0.0, SVG Export Plug-In . SVG Version: 6.00 Build 0)  -->
<svg version="1.1" id="Layer_1" xmlns="http://www.w3.org/2000/svg" xmlns:xlink="http://www.w3.org/1999/xlink" x="100px" y="100px"
	 viewBox="0 -100 1280 800" style="enable-background:new 0 0 1280 800;" xml:space="preserve">
<style type="text/css">
.st0{
            stroke:#f2f7fd;
            stroke-width: 2;
            stroke-miterlimit:0;
            stroke-dasharray: 900;
            stroke-dashoffset: 10;
            animation: draw 15s ease-out forwards;
            }

        @keyframes draw{
            0%{
            stroke-dashoffset: 1300;
            fill: #193f6e;
            stroke: #f2f7fd;
            }
            100%
            {
            stroke-dashoffset: 2000;
            fill: #f2f7fd;
            stroke: #193f6e;
            }
        }

        .st1{
            stroke:#e9ebe8;
            stroke-width: 2;
            fill: e9ebe8;
            stroke-miterlimit:0;
            stroke-dasharray: 250;
            stroke-dashoffset: 0;
            animation: draw1 15s ease-out forwards;
            }

        @keyframes draw1{
            0%{
            stroke-dashoffset: 250;
            fill: #193f6e;
            stroke: #f2f7fd;

            }
            100%
            {
            stroke-dashoffset: 0;
            fill: #f2f7fd;
			stroke: #193f6e;
            }
        }
</style>
<g>
	<path class="st0" d="M185.5,175.8v36.3H230v-36.3h20.2v96.9H230v-42.5h-44.5v42.5h-20.2v-96.9H185.5z"/>
	<path class="st0" d="M281.6,272.7v-96.9H333V194h-31.3v18.1h36.4v18.1h-36.4v24.3h39.9v18.2H281.6z"/>
	<path class="st0" d="M389.2,255.9v16.8h-20.2v-96.9h33.7c22.8,0,40.2,17,40.2,38.1c0,17.4-8.3,30.2-21.8,36.4l20.9,22.4h-26.8l-15.9-16.8H389.2
		z M397.5,237.7c16,0,24.7-7.8,24.7-22.2c0-11.8-7-21.5-20.8-21.5h-12.2v43.7H397.5z"/>
	<path class="st0" d="M490,255.9v16.8h-20.2v-96.9h33.7c22.8,0,40.2,17,40.2,38.1c0,17.4-8.3,30.2-21.8,36.4l20.9,22.4H516l-15.9-16.8H490z
		 M498.3,237.7c16,0,24.7-7.8,24.7-22.2c0-11.8-7-21.5-20.8-21.5H490v43.7H498.3z"/>
	<path class="st0" d="M632.7,259.7h-46.9l-6.2,13h-20.8l51.1-98.5l51.2,98.5h-22L632.7,259.7z M594.5,241.5h29.4L609,211.3L594.5,241.5z"/>
	<path class="st0" d="M721.7,175.8c28,0,50.7,20.8,50.7,48.4c0,27.8-22.8,48.5-50.6,48.5h-39.4v-96.9H721.7z M721.9,254.5
		c16.8,0,29.9-12.9,29.9-30.3c0-17.6-13.1-30.2-30-30.2h-19.1v60.5H721.9z"/>
	<path class="st0" d="M799,227.8v-52h20.2v55.4c0,15.2,7.4,23.8,21.7,23.8c15.1,0,21.6-9.2,21.6-23.8v-55.4h19.9v53.7
		c0,28.2-15.7,44.9-41.5,44.9C812.5,274.4,799,254.7,799,227.8z"/>
	<path class="st0" d="M933,255.9v16.8h-20.2v-96.9h33.7c22.8,0,40.2,17,40.2,38.1c0,17.4-8.3,30.2-21.8,36.4l20.9,22.4H959l-15.9-16.8H933z
		 M941.3,237.7c16,0,24.7-7.8,24.7-22.2c0-11.8-7-21.5-20.8-21.5H933v43.7H941.3z"/>
	<path class="st0" d="M1075.7,259.7h-46.9l-6.2,13h-20.8l51.1-98.5l51.2,98.5h-22L1075.7,259.7z M1037.5,241.5h29.4l-14.8-30.2L1037.5,241.5z"/>
</g>
<g>
	<path class="st1" d="M323.4,319.7v21.2h-6v-1.5c-0.9,1.2-3.2,2-5.2,2c-5.8,0-10.4-5-10.4-11c0-6.1,4.7-11.1,10.4-11.1c1.9,0,4.2,0.9,5.2,1.9
		v-1.5H323.4z M317.7,330.3c0-3-2.1-5.1-4.8-5.1c-2.7,0-5,2.1-5,5.1c0,3,2.2,5.1,5,5.1C315.6,335.5,317.7,333.4,317.7,330.3z"/>
	<path class="st1" d="M369.6,351v-31.3h6v1.5c0.9-1,3.2-1.9,5.2-1.9c5.8,0,10.4,5,10.4,11c0,6.1-4.7,11.1-10.5,11.1c-1.8,0-3.9-0.6-5-2V351
		H369.6z M375.3,330.3c0,3,2.1,5.2,4.8,5.2c2.7,0,5-2.1,5-5.2c0-3-2.2-5.1-5-5.1C377.4,325.2,375.3,327.3,375.3,330.3z"/>
	<path class="st1" d="M457.1,319.7v21.2h-6v-1.5c-0.9,1.2-3.2,2-5.2,2c-5.8,0-10.4-5-10.4-11c0-6.1,4.7-11.1,10.4-11.1c1.9,0,4.2,0.9,5.2,1.9
		v-1.5H457.1z M451.4,330.3c0-3-2.1-5.1-4.8-5.1c-2.7,0-5,2.1-5,5.1c0,3,2.2,5.1,5,5.1C449.3,335.5,451.4,333.4,451.4,330.3z"/>
	<path class="st1" d="M515.5,325.5c-0.6-0.2-1.2-0.3-1.9-0.3c-2.3,0-4.3,1.7-4.3,5.1v10.6h-6v-21.2h6v1.5c1.3-1.4,3.1-1.9,4.7-1.9
		c0.5,0,0.9,0,1.5,0.1V325.5z"/>
	<path class="st1" d="M567.5,325.2v6.8c0,2.4,2.2,3.5,4.9,3.5v5.9c-6.3,0-10.9-3.7-10.9-9.2v-6.9h-3.2v-5.5h3.2v-2.8l6-4.3v7.1h5v5.5H567.5z"/>
	<path class="st1" d="M637.9,319.7v21.2h-6v-1.5c-0.9,1.2-3.2,2-5.2,2c-5.8,0-10.4-5-10.4-11c0-6.1,4.7-11.1,10.4-11.1c1.9,0,4.2,0.9,5.2,1.9
		v-1.5H637.9z M632.2,330.3c0-3-2.1-5.1-4.8-5.1c-2.7,0-5,2.1-5,5.1c0,3,2.2,5.1,5,5.1C630.2,335.5,632.2,333.4,632.2,330.3z"/>
	<path class="st1" d="M704.8,340.9h-6v-10.6c0-3.7-1.9-5.1-4.6-5.1c-2.2,0-4.2,2.3-4.2,5.1v10.6h-6v-21.2h6v1.5c1-1.2,3.4-1.9,5.2-1.9
		c3.1,0,5.9,1.4,7.2,3.4c2-2.7,5.4-3.4,7.6-3.4c6.5,0,9.7,5,9.7,11.1v10.6h-5.9v-10.6c0-3.2-2-5.1-4.4-5.1c-2.6,0-4.6,2.3-4.6,5.1
		V340.9z"/>
	<path class="st1" d="M785.6,337c-1.8,2.7-5.5,4.4-9.3,4.4c-6.4,0-11.5-5-11.5-11c0-6.1,4.9-11.1,11-11.1c5.3,0,9.3,3.5,10.6,7.5l-11.8,8.5
		c0.5,0.2,1.1,0.3,1.8,0.3c1.8,0,3.6-0.6,4.6-2.1L785.6,337z M770.9,331.7l7.7-5.5c-0.8-0.6-1.8-1-2.9-1c-2.7,0-5,2.1-5,5.1
		C770.8,330.8,770.8,331.3,770.9,331.7z"/>
	<path class="st1" d="M853,340.9h-5.9v-10.6c0-3.4-2-5.1-4.4-5.1c-2.6,0-5.1,1.7-5.1,5.1v10.6h-6v-21.2h6v1.5c1.2-1.3,3.7-1.9,5.6-1.9
		c5.8,0,9.8,5,9.8,11.1V340.9z"/>
	<path class="st1" d="M906.3,325.2v6.8c0,2.4,2.2,3.5,4.9,3.5v5.9c-6.3,0-10.9-3.7-10.9-9.2v-6.9h-3.2v-5.5h3.2v-2.8l6-4.3v7.1h5v5.5H906.3z"/>
	<path class="st1" d="M954.9,325.7c0-3.7,3.8-6.4,7-6.4c2.7,0,4.8,1.1,6.3,3.3l-4.3,3.1c-0.5-0.5-1.1-0.9-1.9-0.9s-1.3,0.5-1.3,1.1
		c0,0.7,0.5,1.1,2.3,1.3c3.9,0.5,6.9,2.5,6.9,6.9c0,4.3-3.6,7.3-8.1,7.3c-3.2,0-5.5-1.1-7.3-3.2l5-3.7c0.6,0.7,1.4,0.9,2.3,0.9
		c1.1,0,1.6-0.6,1.6-1.4c0-0.8-0.5-1.4-1.9-1.6C957.7,331.8,954.9,329.3,954.9,325.7z"/>
</g>
<g>
	<rect class="st1" x="166" y="325" width="100" height="6"/>
</g>
<g>
	<rect class="st1" x="1003" y="325" width="100" height="6"/>
</g>
</svg>