<?xml version="1.0" encoding="utf-8"?>
<!-- Generator: Adobe Illustrator 21.0.0, SVG Export Plug-In . SVG Version: 6.00 Build 0)  -->
<svg version="1.1" id="Layer_1" xmlns="http://www.w3.org/2000/svg" xmlns:xlink="http://www.w3.org/1999/xlink" x="0px" y="0px"
	 viewBox="0 -150 1280 800" style="enable-background:new 0 0 1280 800;" xml:space="preserve">
<style type="text/css">
	.st0{
                    
                    stroke:#f9f2d7;
                    stroke-width: 1;
                    fill: white;
<!--
                    stroke-linecap:round;
                    stroke-linejoin:round;
-->
                    stroke-miterlimit:5;
                    stroke-dasharray: 1000;
                    stroke-dashoffset: 0;
                    animation: draw 10s ease-out forwards;
                }

                @keyframes draw{
                    0%{
                    stroke-dashoffset: 1000;
                    fill: #6f9ad4;
                    

                    }
                    100%
                    {
                    stroke-dashoffset: 0;
                    fill: #f9f2d7;
                    }
                }
</style>
<g>
	<g>
		<path class="st0" d="M87.5,103.3h14.7v61.6h45.3v-61.6h14.7V250h-14.7v-71.9h-45.3V250H87.5V103.3z"/>
		<path class="st0" d="M162.8,250.5H147v-71.9h-44.3v71.9H87V102.8h15.7v61.6H147v-61.6h15.7V250.5z M148,249.5h13.7V103.8H148v61.6h-46.3v-61.6
			H88v145.7h13.7v-71.9H148V249.5z"/>
	</g>
	<g>
		<path class="st0" d="M225.4,103.3h71.5v13.2h-56.8v48.4H287v13.2h-46.9v58.7h56.8V250h-71.5V103.3z"/>
		<path class="st0" d="M297.4,250.5h-72.5V102.8h72.5V117h-56.8v47.4h46.9v14.2h-46.9v57.7h56.8V250.5z M225.9,249.5h70.5v-12.2h-56.8v-59.7
			h46.9v-12.2h-46.9V116h56.8v-12.2h-70.5V249.5z"/>
	</g>
	<g>
		<path class="st0" d="M358.5,103.3h39.6c14.5,0,32.8,12.5,32.8,38.9c0,18-7.3,35.2-25.3,41.4l30.4,62.9l-13.2,6.4l-33-68.2h-16.5V250h-14.7
			V103.3z M373.2,171.5h21.6c12.8,0,20.7-9.5,20.7-29.3c0-19.1-9.2-25.7-24.2-25.7h-18V171.5z"/>
		<path class="st0" d="M422.5,253.5l-33.1-68.4h-15.7v65.3H358V102.8h40.1c16.1,0,33.3,13.8,33.3,39.4c0,20.8-9.1,35.9-25.1,41.6l30.3,62.9
			L422.5,253.5z M372.7,184.2h17.3l32.9,68l12.3-5.9l-30.4-63l0.5-0.2c15.9-5.4,25-20.3,25-40.9c0-25-16.6-38.4-32.3-38.4H359v145.7
			h13.7V184.2z M394.8,172h-22.1v-56h18.5c16.9,0,24.7,8.3,24.7,26.2C416,161.4,408.5,172,394.8,172z M373.7,171h21.1
			c13,0,20.2-10.2,20.2-28.8c0-17.2-7.5-25.2-23.7-25.2h-17.5V171z"/>
	</g>
	<g>
		<path class="st0" d="M490.5,103.3h39.6c14.5,0,32.8,12.5,32.8,38.9c0,18-7.3,35.2-25.3,41.4l30.4,62.9l-13.2,6.4l-33-68.2h-16.5V250h-14.7
			V103.3z M505.2,171.5h21.6c12.8,0,20.7-9.5,20.7-29.3c0-19.1-9.2-25.7-24.2-25.7h-18V171.5z"/>
		<path class="st0" d="M554.5,253.5l-33.1-68.4h-15.7v65.3H490V102.8h40.1c16.1,0,33.3,13.8,33.3,39.4c0,20.8-9.1,35.9-25.1,41.6l30.3,62.9
			L554.5,253.5z M504.7,184.2h17.3l32.9,68l12.3-5.9l-30.4-63l0.5-0.2c15.9-5.4,25-20.3,25-40.9c0-25-16.6-38.4-32.3-38.4H491v145.7
			h13.7V184.2z M526.8,172h-22.1v-56h18.5c16.9,0,24.7,8.3,24.7,26.2C548,161.4,540.5,172,526.8,172z M505.7,171h21.1
			c13,0,20.2-10.2,20.2-28.8c0-17.2-7.5-25.2-23.7-25.2h-17.5V171z"/>
	</g>
	<g>
		<path class="st0" d="M632.8,204.7l-11.4,48.2l-14.5-4l37.2-145.6h17.6l37.2,145.6l-14.5,4l-11.4-48.2H632.8z M653.1,122.9h-0.4l-16.3,68.6h33
			L653.1,122.9z"/>
		<path class="st0" d="M683.9,253.5l-11.5-48.3h-39.2l-11.5,48.3l-15.5-4.2l37.4-146.5H662l0.1,0.4l37.3,146.1L683.9,253.5z M632.4,204.2h40.8
			l0.1,0.4l11.3,47.7l13.5-3.7l-37-144.8h-16.8l-37,144.8l13.5,3.7L632.4,204.2z M670,192h-34.3l16.5-69.6h1.2l0.1,0.4L670,192z
			 M637,191h31.7l-15.9-66.9L637,191z"/>
	</g>
	<g>
		<path class="st0" d="M745,116.5v-13.2h38.7c29.5,0,46.9,13,46.9,73.5c0,32.3-1.8,73.3-46.4,73.3H745v-13.2h11.9V116.5H745z M771.7,236.8h12.1
			c17.8,0,31.5-4.6,31.5-60.1c0-55.9-15-60.3-27.9-60.3h-15.6V236.8z"/>
		<path class="st0" d="M784.2,250.5h-39.7v-14.2h11.9V117h-11.9v-14.2h39.2c29.2,0,47.4,12.4,47.4,74c0,17-0.5,34.7-6.5,49
			C817.6,242.4,804.3,250.5,784.2,250.5z M745.5,249.5h38.7c42.4,0,45.9-35.9,45.9-72.8c0-60.8-17.7-73-46.4-73h-38.2V116h11.9
			v121.3h-11.9V249.5z M783.8,237.3h-12.6V116h16.1c6.4,0,13.8,1.1,19.3,9.4c6.2,9.3,9.2,26.1,9.2,51.4
			C815.7,232.9,801.9,237.3,783.8,237.3z M772.2,236.3h11.6c17.5,0,31-4.4,31-59.6c0-59.8-17.9-59.8-27.4-59.8h-15.1V236.3z"/>
	</g>
	<g>
		<path class="st0" d="M895.7,103.3V210c0,14.5,2.9,28.2,21.1,28.2c18.3,0,21.3-13.9,21.3-28.2V103.3h14.7v111.1c0,22.9-14.3,37.6-36.1,37.6
			c-22.2,0-35.9-15.2-35.9-37V103.3H895.7z"/>
		<path class="st0" d="M916.9,252.5c-22.1,0-36.4-14.7-36.4-37.5V102.8h15.7V210c0,13.7,2.5,27.7,20.6,27.7c18.5,0,20.8-14.8,20.8-27.7V102.8
			h15.7v111.6C953.4,237.5,939.1,252.5,916.9,252.5z M881.5,103.8V215c0,22.1,13.9,36.5,35.4,36.5c21.6,0,35.6-14.6,35.6-37.1V103.8
			h-13.7V210c0,13.3-2.5,28.7-21.8,28.7c-19.1,0-21.6-14.5-21.6-28.7V103.8H881.5z"/>
	</g>
	<g>
		<path class="st0" d="M1018.5,103.3h39.6c14.5,0,32.8,12.5,32.8,38.9c0,18-7.3,35.2-25.3,41.4l30.4,62.9l-13.2,6.4l-33-68.2h-16.5V250h-14.7
			V103.3z M1033.2,171.5h21.6c12.8,0,20.7-9.5,20.7-29.3c0-19.1-9.2-25.7-24.2-25.7h-18V171.5z"/>
		<path class="st0" d="M1082.5,253.5l-33.1-68.4h-15.7v65.3H1018V102.8h40.1c16.1,0,33.3,13.8,33.3,39.4c0,20.8-9.1,35.9-25.1,41.6l30.3,62.9
			L1082.5,253.5z M1032.7,184.2h17.3l32.9,68l12.3-5.9l-30.4-63l0.5-0.2c15.9-5.4,25-20.3,25-40.9c0-25-16.6-38.4-32.3-38.4H1019
			v145.7h13.7V184.2z M1054.8,172h-22.1v-56h18.5c16.9,0,24.7,8.3,24.7,26.2C1076,161.4,1068.4,172,1054.8,172z M1033.7,171h21.1
			c13,0,20.2-10.2,20.2-28.8c0-17.2-7.5-25.2-23.7-25.2h-17.5V171z"/>
	</g>
	<g>
		<path class="st0" d="M1160.8,204.7l-11.4,48.2l-14.5-4l37.2-145.6h17.6l37.2,145.6l-14.5,4l-11.4-48.2H1160.8z M1181.1,122.9h-0.4l-16.3,68.6
			h33L1181.1,122.9z"/>
		<path class="st0" d="M1211.9,253.5l-11.5-48.3h-39.2l-11.5,48.3l-15.5-4.2l0.1-0.5l37.3-146h18.4l0.1,0.4l37.3,146.1L1211.9,253.5z
			 M1160.4,204.2h40.8l0.1,0.4l11.3,47.7l13.5-3.7l-37-144.8h-16.8l-37,144.8l13.5,3.7L1160.4,204.2z M1198,192h-34.3l0.1-0.6
			l16.4-69h1.2l0.1,0.4L1198,192z M1165,191h31.7l-15.9-66.9L1165,191z"/>
	</g>
</g>
<g>
	<path class="st0" d="M88.3,283.9l-2.1,8.8l-2.6-0.7l6.8-26.5h3.2l6.8,26.5l-2.6,0.7l-2.1-8.8H88.3z M92,269L92,269l-3,12.5h6
		L92,269z"/>
	<path class="st0" d="M201.1,292.1h-2.7v-26.7h5.8c4.7,0,7.4,2.5,7.4,7.1c0,5-2.8,7.7-6.5,7.7h-4V292.1z M201.1,277.8l3.8,0
		c2.5,0,3.9-1.9,3.9-5.3c0-3.3-1.7-4.7-4.6-4.7h-3.1V277.8z"/>
	<path class="st0" d="M312.3,283.9l-2.1,8.8l-2.6-0.7l6.8-26.5h3.2l6.8,26.5l-2.6,0.7l-2.1-8.8H312.3z M316,269L316,269l-3,12.5h6
		L316,269z"/>
	<path class="st0" d="M422.4,265.4h7.2c2.6,0,6,2.3,6,7.1c0,3.3-1.3,6.4-4.6,7.5l5.5,11.4l-2.4,1.2l-6-12.4h-3v11.9h-2.7V265.4z
		 M425.1,277.8h3.9c2.3,0,3.8-1.7,3.8-5.3c0-3.5-1.7-4.7-4.4-4.7h-3.3V277.8z"/>
	<path class="st0" d="M538.6,267.8h-5.8v-2.4H547v2.4h-5.6v24.3h-2.7V267.8z"/>
	<path class="st0" d="M648.3,283.9l-2.1,8.8l-2.6-0.7l6.8-26.5h3.2l6.8,26.5l-2.6,0.7l-2.1-8.8H648.3z M652,269L652,269l-3,12.5h6
		L652,269z"/>
	<path class="st0" d="M770.2,265.4h3.4l0.8,26.7h-2.8l-0.5-22.2h-0.1l-4.6,13.4l-4.6-13.4h-0.1l-0.5,22.2h-2.8l0.8-26.7h3.3
		l3.8,11.3L770.2,265.4z"/>
	<path class="st0" d="M872.6,265.4h13v2.4h-10.3v8.8h8.5v2.4h-8.5v10.7h10.3v2.4h-13V265.4z"/>
	<path class="st0" d="M983.4,265.4h3.4l7.9,22.4l0.1-0.1l-0.1-6v-16.4h2.7v26.7h-3.4l-7.9-22.5l-0.1,0.1l0.1,6v16.4h-2.7V265.4z"/>
	<path class="st0" d="M1101,267.8h-5.8v-2.4h14.1v2.4h-5.6v24.3h-2.7V267.8z"/>
	<path class="st0" d="M1218.2,271.5c-0.4-2-1.4-3.9-3.7-3.9c-2.5,0-3.5,2-3.5,4.3c0,2.2,0.4,2.8,4.6,5.4c3.3,2,5.5,3.6,5.5,7.7
		c0,4.2-2.2,7.5-6.7,7.5c-4.7,0-6.4-3.1-6.8-7.4l2.7-0.4c0.4,3,1,5.2,4.2,5.2c2.3,0,4-1.6,4-4.8c0-3.5-2.3-4.7-5-6.3
		c-3.1-1.8-5.1-3.1-5.1-7c0-3.6,2.4-6.8,6.2-6.8c3.8,0,5.6,2.7,6.3,6L1218.2,271.5z"/>
</g>
</svg>